<?xml version="1.0" standalone="no"?>
<!DOCTYPE svg PUBLIC "-//W3C//DTD SVG 20010904//EN"
 "http://www.w3.org/TR/2001/REC-SVG-20010904/DTD/svg10.dtd">
<svg version="1.0" xmlns="http://www.w3.org/2000/svg"
 width="1280.000000pt" height="1163.000000pt" viewBox="0 0 1280.000000 1163.000000"
 preserveAspectRatio="xMidYMid meet">
<metadata>
Created by potrace 1.15, written by Peter Selinger 2001-2017
</metadata>
<g transform="translate(0.000000,1163.000000) scale(0.100000,-0.100000)"
fill="#000000" stroke="none">
<path d="M4295 11026 l-740 -212 -8 -74 c-51 -507 -117 -763 -240 -925 -25
-33 -86 -93 -137 -134 -171 -139 -214 -202 -335 -499 -62 -154 -68 -173 -90
-330 -35 -238 -75 -490 -86 -542 -17 -74 -47 -132 -97 -183 -59 -61 -226 -181
-288 -208 -245 -104 -545 -501 -682 -900 -66 -191 -83 -287 -117 -664 -8 -93
-18 -185 -21 -204 l-6 -35 -18 40 c-9 23 -30 50 -45 62 -90 71 -208 -35 -345
-313 -115 -235 -188 -459 -237 -735 -35 -196 -43 -510 -19 -679 62 -420 267
-645 549 -601 146 22 321 114 494 257 88 73 127 89 140 57 9 -25 -7 -44 -78
-86 -85 -52 -134 -101 -167 -168 -23 -46 -27 -67 -26 -135 0 -66 6 -96 35
-170 35 -93 133 -261 243 -420 113 -164 163 -329 153 -505 -11 -187 -77 -343
-271 -644 -125 -193 -160 -258 -176 -330 -21 -93 20 -173 121 -234 127 -77
359 -136 569 -146 80 -4 194 -14 254 -22 208 -27 582 -15 766 26 160 34 313
110 381 188 108 123 113 294 14 478 l-33 61 66 11 c135 23 262 114 319 229 66
135 19 288 -120 390 l-50 37 7 120 c13 235 69 667 97 753 13 40 19 40 58 7 43
-36 51 -76 34 -165 -31 -159 35 -525 132 -735 27 -60 42 -79 82 -106 82 -56
192 -169 252 -259 32 -47 104 -177 161 -289 124 -244 197 -356 287 -440 95
-89 154 -115 268 -115 81 0 97 3 158 32 38 18 87 47 110 65 102 81 175 234
164 343 -10 101 -75 182 -182 231 -186 85 -355 216 -355 276 0 37 71 11 143
-52 42 -37 90 -54 1143 -386 604 -190 1106 -350 1115 -355 9 -5 19 -21 22 -36
9 -47 -12 -195 -48 -337 -40 -159 -75 -251 -124 -325 -33 -50 -36 -60 -36
-131 0 -74 2 -80 71 -221 40 -79 80 -166 89 -194 42 -119 93 -144 157 -77 101
105 221 304 281 467 15 39 56 213 92 389 81 396 74 369 94 363 182 -55 398
-114 679 -188 584 -152 684 -182 971 -294 53 -21 103 -34 115 -31 12 3 48 23
81 44 88 57 1009 465 1565 692 124 51 253 104 288 119 l63 26 0 980 c-1 539
-4 2444 -8 4233 -6 3099 -7 3254 -24 3282 -28 46 -56 57 -189 75 -69 9 -181
29 -250 45 -90 21 -238 40 -530 70 -223 23 -406 43 -408 44 -1 2 26 9 60 16
216 42 917 229 1030 275 187 76 194 121 26 160 -123 28 -358 35 -1683 50 -737
9 -2067 24 -2955 35 -888 11 -1709 20 -1825 19 l-210 0 -740 -213z m2830 134
c308 -6 864 -17 1235 -25 1191 -26 2473 -39 2928 -29 232 5 422 6 422 3 0 -4
-26 -18 -57 -32 -60 -26 -211 -66 -518 -138 -240 -55 -431 -112 -523 -155
l-76 -35 -816 10 c-448 6 -984 13 -1190 16 -206 3 -580 7 -830 11 -250 3
-1166 14 -2035 25 -869 10 -1634 19 -1700 20 -66 0 -113 3 -105 7 8 3 281 82
605 174 l590 168 755 -5 c415 -3 1007 -10 1315 -15z m-2990 -386 c380 -44 986
-135 2035 -304 1187 -192 1297 -209 1750 -279 906 -140 1614 -236 2126 -287
l262 -26 143 50 c79 28 427 150 772 272 346 122 632 218 635 215 4 -4 8 -1884
10 -4178 l3 -4172 -733 -310 c-403 -170 -817 -345 -921 -389 -103 -44 -189
-77 -192 -74 -3 3 -1 225 5 494 6 269 24 1200 40 2069 17 914 36 1679 45 1815
23 369 34 601 45 935 10 319 11 3245 1 3245 -3 0 -101 11 -217 25 -217 25
-296 37 -2229 330 -632 96 -1762 267 -2510 380 -748 113 -1367 207 -1375 210
-28 8 175 -6 305 -21z m895 -284 c745 -109 2118 -312 3050 -449 932 -137 1706
-251 1720 -253 25 -3 25 -4 24 -98 -3 -267 -164 -724 -378 -1068 -132 -213
-318 -430 -482 -562 l-72 -57 -218 49 c-121 27 -511 114 -869 194 -357 80
-870 195 -1140 255 -269 60 -554 124 -631 141 l-141 31 -7 60 c-3 33 -6 85 -6
116 0 95 -28 323 -46 380 -26 77 -10 134 86 324 83 164 95 208 61 227 -52 27
-202 -7 -352 -80 -141 -69 -160 -67 -255 25 -61 59 -106 85 -147 85 -24 0 -24
1 -15 50 10 56 37 131 97 268 l40 94 -25 25 c-25 24 -30 25 -107 21 -101 -7
-231 -49 -368 -119 -103 -53 -187 -118 -176 -136 4 -6 44 -16 89 -23 86 -13
160 -39 173 -60 4 -7 4 -11 -1 -8 -123 59 -205 70 -378 48 -300 -37 -373 -82
-579 -355 -70 -94 -141 -196 -157 -227 -82 -158 -139 -357 -164 -568 -28 -239
-47 -292 -138 -386 -62 -65 -88 -81 -67 -43 6 12 26 76 45 143 19 66 48 161
66 210 29 83 29 89 13 99 -36 20 -93 78 -105 108 -26 63 16 98 151 127 l79 17
-30 37 -31 37 16 158 c9 87 32 269 51 405 48 344 62 487 70 722 l7 204 -42 4
c-49 4 -43 22 -66 -192 -35 -319 -94 -588 -160 -725 -41 -86 -95 -149 -179
-209 -114 -81 -160 -150 -227 -338 -50 -140 -214 -692 -264 -888 -20 -80 -51
-174 -68 -210 -43 -93 -125 -168 -282 -263 -278 -167 -423 -290 -529 -450 -94
-141 -159 -326 -191 -545 -21 -137 -34 -444 -28 -615 l6 -137 -76 42 c-44 25
-78 51 -81 63 -3 11 -11 75 -18 142 -38 405 113 887 386 1238 115 146 239 251
364 306 139 62 174 83 221 135 111 121 161 260 220 606 50 292 81 392 198 638
50 105 75 143 155 235 52 61 142 155 201 209 163 151 172 177 257 684 27 165
50 302 50 305 0 2 10 3 23 0 12 -2 632 -93 1377 -203z m5111 -184 c-27 -180
-51 -330 -54 -332 -3 -3 -344 49 -759 115 -415 67 -760 121 -768 122 -38 1 60
27 520 135 1096 257 1029 240 1069 272 20 16 37 27 39 23 1 -4 -20 -154 -47
-335z m514 299 c429 -76 723 -124 793 -131 72 -7 72 -7 55 -26 -10 -11 -63
-42 -118 -69 -98 -47 -168 -72 -636 -224 -130 -42 -275 -95 -322 -118 l-87
-43 0 31 c0 16 7 149 15 295 8 146 15 277 15 293 0 25 3 27 43 27 23 0 132
-16 242 -35z m-376 -405 c0 -74 -4 -152 -10 -173 l-10 -37 -30 17 c-26 15 -29
23 -25 48 3 17 18 134 33 260 l28 230 6 -105 c4 -58 7 -166 8 -240z m-6673
-437 c-54 -364 -58 -400 -60 -511 -2 -102 -2 -103 -31 -121 -56 -34 -95 -100
-95 -158 1 -42 36 -112 64 -124 l24 -11 -144 -426 c-79 -234 -157 -448 -172
-476 -15 -28 -56 -81 -92 -117 -56 -57 -83 -75 -195 -129 -71 -34 -283 -143
-469 -243 l-339 -180 7 -168 7 -167 -140 -280 -139 -280 -7 70 c-4 39 -4 132
0 207 21 423 110 682 296 856 73 68 119 99 284 186 155 82 224 140 327 279
122 163 163 271 233 609 60 289 82 354 201 595 97 196 100 200 203 310 57 61
119 135 138 163 45 71 87 180 109 280 9 46 19 81 21 79 3 -2 -11 -111 -31
-243z m6460 -10 c7 -3 19 -23 24 -44 15 -55 -5 -164 -79 -428 -34 -117 -70
-261 -81 -321 -37 -198 -98 -336 -217 -495 -38 -50 -179 -200 -319 -340 -138
-137 -274 -281 -302 -320 -128 -174 -174 -325 -206 -688 -16 -176 -33 -231
-107 -341 -132 -197 -333 -331 -830 -549 -301 -132 -300 -132 -361 -209 -132
-165 -213 -391 -248 -688 -6 -52 -14 -256 -17 -452 -7 -406 1 -376 -93 -363
-97 13 -150 75 -171 200 -10 55 -9 108 1 255 7 102 12 226 11 275 -3 111 19
264 53 368 117 356 435 648 815 747 305 80 566 274 705 523 47 84 94 227 102
312 4 47 29 137 74 270 131 386 175 475 302 613 352 382 594 866 763 1527 20
77 38 146 41 154 3 10 18 12 65 7 33 -4 67 -10 75 -13z m2 -1496 c4 -1332 -25
-2247 -78 -2452 -27 -105 -87 -228 -140 -288 -84 -95 -171 -142 -435 -237
-549 -198 -1133 -438 -1718 -707 -114 -53 -210 -94 -212 -91 -2 2 -12 33 -21
69 -20 77 -22 195 -10 559 7 243 10 274 37 377 78 308 214 499 437 616 40 21
143 65 230 98 214 82 297 123 437 220 144 100 268 220 312 305 42 79 69 196
83 359 17 211 50 425 76 505 50 150 113 232 331 432 90 83 194 186 230 227
194 226 327 502 423 879 6 23 12 42 13 42 1 0 3 -411 5 -913z m-4299 392 c-15
-88 -5 -213 21 -280 12 -30 29 -72 37 -94 8 -22 34 -63 59 -91 55 -65 64 -89
64 -174 0 -83 -34 -190 -83 -264 -29 -44 -55 -64 -182 -141 -138 -83 -152 -89
-211 -93 -54 -4 -72 0 -119 22 -62 31 -115 88 -149 161 -26 55 -46 137 -46
189 0 56 30 136 65 174 l33 37 104 6 c123 7 191 35 233 96 l25 38 -46 5 -46 5
22 20 c29 26 56 81 66 130 l8 40 8 -40 c5 -22 6 -60 3 -85 -13 -87 7 -30 50
142 39 160 79 277 90 266 2 -2 0 -33 -6 -69z m1593 -374 c799 -178 1464 -328
1477 -332 13 -4 26 -13 28 -18 2 -6 -17 -46 -42 -90 -25 -43 -51 -96 -57 -117
-8 -28 -16 -37 -27 -33 -9 2 -657 162 -1440 355 -783 192 -1438 358 -1454 368
-39 23 -51 43 -43 75 7 30 76 115 93 116 7 1 666 -145 1465 -324z m-1812 227
c0 -5 -9 -17 -21 -28 -33 -30 -60 -92 -66 -150 -3 -30 -10 -54 -14 -54 -11 0
-81 95 -103 138 -25 49 -18 75 24 89 40 14 180 17 180 5z m1775 -552 c748
-188 1364 -345 1369 -350 30 -30 23 -193 -15 -350 -95 -384 -292 -657 -474
-660 -17 0 -229 47 -470 105 -737 176 -709 169 -689 180 79 46 134 135 134
220 0 65 -39 134 -114 203 -98 89 -206 126 -366 125 -121 0 -230 -23 -400 -83
-75 -26 -170 -53 -212 -60 -96 -16 -281 -8 -363 14 -79 22 -249 107 -252 126
-2 10 42 36 136 82 234 114 305 182 357 343 33 100 38 217 12 257 -17 26 -17
28 3 62 29 49 22 85 -21 114 -19 13 -26 22 -15 18 11 -3 632 -159 1380 -346z
m-4546 -404 c-97 -87 -198 -153 -362 -235 -183 -91 -186 -92 -227 -81 -23 6
-40 13 -37 16 2 3 141 72 308 154 265 129 336 162 318 146z m3966 -191 c95
-25 240 -100 295 -153 62 -60 87 -142 59 -193 -13 -25 -87 -79 -107 -79 -9 0
-13 2 -10 5 3 3 1 27 -3 52 -10 51 -42 93 -71 93 -17 0 -16 -3 7 -38 34 -51
41 -94 20 -112 -14 -11 -25 -12 -63 -1 -59 16 -72 27 -72 63 0 46 -35 103 -72
119 -87 37 -271 -3 -415 -89 -81 -49 -236 -165 -262 -196 -15 -18 -10 -28 -72
141 -34 92 -18 171 42 214 16 11 84 40 152 64 67 25 152 55 189 69 144 54 277
68 383 41z m3 -327 c7 -29 21 -65 32 -80 11 -16 17 -28 13 -28 -37 3 -354 87
-355 95 -3 31 109 60 247 64 l50 1 13 -52z m10 -174 c994 -228 1326 -305 1329
-308 8 -7 -362 -149 -387 -149 -14 0 -327 77 -697 171 -370 95 -720 184 -778
198 l-106 27 38 39 c44 45 148 118 170 118 8 0 202 -43 431 -96z m-1602 -95
c108 -81 147 -112 185 -145 92 -80 213 -71 508 40 69 25 126 45 127 43 1 -1
-43 -26 -99 -55 -94 -48 -103 -56 -120 -97 -10 -24 -16 -48 -13 -54 3 -5 29
-14 56 -21 57 -14 37 -25 223 122 98 77 99 77 128 63 16 -9 29 -18 29 -20 0
-3 -45 -34 -100 -70 -100 -64 -100 -65 -100 -105 0 -39 2 -42 47 -61 l46 -20
81 56 c45 31 115 80 156 109 l75 53 99 -28 c54 -16 100 -30 102 -31 1 -2 -51
-33 -116 -68 l-120 -65 0 -51 0 -50 65 -27 64 -26 168 114 c92 63 177 114 188
114 11 -1 34 -4 50 -8 l30 -7 -45 -26 c-25 -14 -88 -50 -140 -80 -65 -37 -99
-63 -109 -82 -12 -25 -11 -30 3 -38 14 -8 -6 -28 -111 -111 -70 -56 -129 -105
-131 -108 -3 -6 -29 -1 -156 32 l-39 11 89 91 c99 101 98 101 -34 -5 l-92 -75
-123 29 c-67 16 -126 30 -132 32 -5 1 83 71 195 156 230 172 267 202 165 138
-38 -25 -150 -95 -247 -156 l-177 -112 -53 12 c-29 6 -57 14 -61 18 -4 4 44
40 107 80 64 40 116 74 116 76 0 5 -248 -124 -266 -138 -11 -8 -184 32 -184
42 0 3 48 34 105 69 58 35 113 70 123 78 17 14 0 6 -180 -91 l-87 -47 -76 23
c-41 13 -75 25 -75 28 0 3 19 16 43 29 82 46 317 204 317 214 0 10 -86 -37
-272 -150 l-138 -83 -40 20 c-22 11 -40 27 -40 34 0 8 19 53 42 101 54 113 57
169 13 215 -16 18 -59 52 -95 76 -36 24 -59 44 -53 44 7 0 42 -23 79 -51z
m2009 -359 c14 -5 25 -12 25 -14 0 -3 -59 -40 -131 -82 -88 -52 -138 -88 -150
-108 -24 -40 -24 -53 1 -61 11 -3 20 -9 20 -13 0 -4 -59 -46 -130 -93 l-131
-86 -128 30 -129 30 32 17 c17 9 81 51 141 94 88 62 115 76 136 72 22 -4 59
17 200 114 179 122 182 123 244 100z m333 -101 c34 -7 62 -15 62 -18 0 -3 -46
-31 -101 -61 -127 -69 -179 -114 -229 -198 -21 -37 -59 -93 -84 -124 -42 -53
-48 -56 -73 -48 -16 5 -81 23 -146 41 -65 17 -116 35 -115 39 9 22 173 149
200 156 18 3 51 21 73 39 22 18 99 69 170 114 97 61 136 80 155 76 14 -2 53
-10 88 -16z m-5604 -85 c-3 -99 -32 -229 -48 -213 -3 3 -7 46 -8 95 -2 71 1
99 16 132 25 55 41 48 40 -14z m3336 -38 c47 -14 355 -95 685 -181 991 -258
1125 -297 1125 -321 0 -16 -51 -227 -57 -233 -6 -8 -1983 513 -1983 522 0 11
134 236 140 237 3 0 44 -11 90 -24z m-3555 -176 c38 -11 80 -20 92 -20 17 0
25 -11 43 -64 l21 -63 -26 -51 c-101 -201 -105 -640 -8 -946 14 -44 32 -93 39
-108 20 -39 2 -35 -35 7 -51 59 -88 146 -130 310 -52 207 -111 667 -111 878 0
90 -1 90 115 57z m4259 -415 c556 -141 1019 -258 1028 -261 16 -5 17 -44 15
-527 -2 -452 0 -541 16 -667 57 -454 136 -741 355 -1292 176 -441 235 -647
249 -870 5 -80 3 -98 -8 -98 -8 0 -534 167 -1169 369 l-1155 369 -48 54 c-61
68 -141 229 -168 336 -32 129 -25 234 22 333 21 42 79 139 131 215 158 233
184 307 174 498 -17 309 -49 397 -273 741 -170 263 -238 402 -258 525 -4 25
-18 95 -32 155 -28 125 -27 189 7 254 20 39 86 121 98 121 3 0 460 -115 1016
-255z m-4562 103 c18 -11 58 -10 58 2 0 6 4 10 8 10 5 0 14 -45 20 -99 43
-363 184 -841 279 -943 30 -32 28 -49 -22 -153 -90 -187 -212 -266 -371 -236
-36 6 -90 21 -120 32 -46 17 -61 30 -90 74 -173 259 -121 692 161 1349 l16 38
25 -33 c13 -18 30 -36 36 -41z m8602 -1093 c-46 -3157 -48 -3259 -75 -3276
-81 -51 -632 82 -1469 353 l-194 63 -7 40 c-4 22 -12 123 -18 225 -30 488 -89
917 -187 1355 -25 112 -15 403 20 562 62 287 201 597 351 786 55 69 46 65 532
268 183 76 390 164 460 196 138 61 457 222 538 270 28 17 52 28 56 24 3 -3 0
-393 -7 -866z m-1781 43 c-55 -89 -163 -325 -202 -443 -97 -299 -97 -386 9
-1000 49 -284 85 -531 102 -695 17 -174 17 -796 0 -920 -46 -326 -135 -547
-282 -704 -56 -59 -158 -141 -166 -133 -2 2 10 30 25 62 60 126 133 394 175
640 36 207 49 386 43 569 -5 176 -24 287 -64 381 -59 140 -191 716 -242 1055
-49 329 -83 770 -65 863 l9 49 335 158 c184 87 338 158 343 159 4 1 -5 -18
-20 -41z m-932 -283 c46 -9 94 -18 106 -20 21 -5 22 -9 22 -154 1 -335 64
-694 266 -1526 118 -484 127 -534 131 -710 2 -129 1 -148 -7 -100 -5 33 -16
102 -24 153 -12 69 -47 178 -136 420 -167 454 -241 667 -303 871 -121 396
-186 747 -186 998 0 97 -8 93 131 68z m-5125 -446 c37 -12 127 -47 200 -79
181 -81 239 -95 469 -121 277 -30 465 -20 729 41 27 6 51 8 54 5 3 -2 -17 -28
-45 -57 -55 -59 -79 -110 -164 -353 l-52 -150 -5 -236 c-6 -336 0 -364 147
-629 65 -118 112 -198 208 -354 187 -303 124 -428 -252 -500 -203 -39 -232
-40 -763 -39 -523 2 -625 7 -716 39 -65 23 -114 61 -137 106 -46 91 1 288 97
400 55 64 106 162 135 258 12 41 41 118 64 170 67 153 80 208 80 350 0 205
-43 314 -229 589 -146 215 -176 275 -176 354 0 87 51 168 135 211 42 22 140
20 221 -5z m1569 -531 c26 -51 64 -108 82 -125 l34 -33 19 -287 c11 -159 20
-302 20 -320 0 -30 3 -32 58 -47 101 -28 162 -62 177 -100 18 -43 9 -75 -41
-150 -44 -66 -75 -86 -137 -86 -152 0 -357 300 -445 649 -22 88 -26 128 -26
236 1 143 18 214 70 282 39 51 103 94 123 84 9 -5 39 -51 66 -103z m727 -154
c30 -15 87 -68 110 -102 10 -15 37 -28 90 -41 144 -37 259 -111 343 -222 50
-67 136 -235 218 -425 66 -155 96 -183 237 -224 95 -27 120 -52 120 -120 0
-47 2 -51 44 -79 54 -37 96 -86 96 -111 0 -31 -54 -83 -118 -114 -59 -28 -60
-29 -65 -80 -8 -63 -36 -91 -81 -82 -17 4 -77 29 -134 58 -180 89 -250 170
-429 506 -159 297 -231 395 -366 499 -78 60 -160 161 -205 252 -98 198 -16
365 140 285z"/>
</g>
</svg>
